{
  "asset": {
    "version": "2.0",
    "generator": "THREE.GLTFExporter"
  },
  "scenes": [
    {
      "nodes": [
        0
      ]
    }
  ],
  "scene": 0,
  "nodes": [
    {
      "children": [
        6
      ],
      "matrix": [
        0.01,
        0,
        0,
        0,
        0,
        0.01,
        0,
        0,
        0,
        0,
        0.01,
        0,
        0,
        0,
        0,
        1
      ]
    },
    {
      "matrix": [
        8,
        0,
        0,
        0,
        0,
        8,
        0,
        0,
        0,
        0,
        8,
        0,
        0,
        0.11321040824170325,
        0.10525490343570709,
        1
      ],
      "name": "Curve001",
      "mesh": 0
    },
    {
      "matrix": [
        8,
        0,
        0,
        0,
        0,
        8,
        0,
        0,
        0,
        0,
        8,
        0,
        1.1102230246251565e-16,
        0.11174293607473368,
        0.10525490343570709,
        1
      ],
      "name": "Curve",
      "mesh": 1
    },
    {
      "matrix": [
        1562.5,
        0,
        0,
        0,
        0,
        3.4694467871637346e-13,
        1562.499925785236,
        0,
        0,
        -1562.499925785236,
        3.4694467871637346e-13,
        0,
        -885.2500664215404,
        -52,
        678.7299046406551,
        1
      ],
      "name": "logogold",
      "children": [
        1,
        2
      ]
    },
    {
      "matrix": [
        0.7071067811865477,
        -1.3877787807814457e-16,
        -0.7071067811865474,
        0,
        -0.40824829046386113,
        0.8164965809277278,
        -0.40824829046386146,
        0,
        0.577350269189627,
        0.5773502691896233,
        0.5773502691896271,
        0,
        319.5806774813707,
        546.1685112956894,
        1391.23861564487,
        1
      ],
      "camera": 0
    },
    {
      "matrix": [
        1,
        0,
        0,
        0,
        0,
        1,
        0,
        0,
        0,
        0,
        1,
        0,
        0,
        1,
        0,
        1
      ],
      "name": "Default Ambient Light"
    },
    {
      "name": "Scene",
      "children": [
        3,
        4,
        5
      ]
    }
  ],
  "bufferViews": [
    {
      "buffer": 0,
      "byteOffset": 0,
      "byteLength": 154680,
      "target": 34962,
      "byteStride": 12
    },
    {
      "buffer": 0,
      "byteOffset": 154680,
      "byteLength": 154680,
      "target": 34962,
      "byteStride": 12
    },
    {
      "buffer": 0,
      "byteOffset": 309360,
      "byteLength": 103120,
      "target": 34962,
      "byteStride": 8
    },
    {
      "buffer": 0,
      "byteOffset": 412480,
      "byteLength": 77520,
      "target": 34963
    },
    {
      "buffer": 0,
      "byteOffset": 490000,
      "byteLength": 277200,
      "target": 34962,
      "byteStride": 12
    },
    {
      "buffer": 0,
      "byteOffset": 767200,
      "byteLength": 277200,
      "target": 34962,
      "byteStride": 12
    },
    {
      "buffer": 0,
      "byteOffset": 1044400,
      "byteLength": 184800,
      "target": 34962,
      "byteStride": 8
    },
    {
      "buffer": 0,
      "byteOffset": 1229200,
      "byteLength": 136296,
      "target": 34963
    }
  ],
  "buffers": [
    {
      "byteLength": 1365496,
      "uri": "data:application/octet-stream;base64,"
    }
  ],
  "accessors": [
    {
      "bufferView": 0,
      "componentType": 5126,
      "count": 12890,
      "max": [
        0.09725292026996613,
        0.004000000189989805,
        -0.03366565704345703
      ],
      "min": [
        0.030024690553545952,
        -0.004000000189989805,
        -0.10009035468101501
      ],
      "type": "VEC3"
    },
    {
      "bufferView": 1,
      "componentType": 5126,
      "count": 12890,
      "max": [
        1,
        1,
        1
      ],
      "min": [
        -1,
        -1,
        -0.9999997615814209
      ],
      "type": "VEC3"
    },
    {
      "bufferView": 2,
      "componentType": 5126,
      "count": 12890,
      "max": [
        1,
        1
      ],
      "min": [
        0,
        0
      ],
      "type": "VEC2"
    },
    {
      "bufferView": 3,
      "componentType": 5123,
      "count": 38760,
      "max": [
        12889
      ],
      "min": [
        0
      ],
      "type": "SCALAR"
    },
    {
      "bufferView": 4,
      "componentType": 5126,
      "count": 23100,
      "max": [
        0.12056063860654831,
        0.003000000026077032,
        -0.01062307320535183
      ],
      "min": [
        0.006762879900634289,
        -0.003000000026077032,
        -0.12280479818582535
      ],
      "type": "VEC3"
    },
    {
      "bufferView": 5,
      "componentType": 5126,
      "count": 23100,
      "max": [
        1,
        1,
        1
      ],
      "min": [
        -1,
        -1,
        -1
      ],
      "type": "VEC3"
    },
    {
      "bufferView": 6,
      "componentType": 5126,
      "count": 23100,
      "max": [
        1,
        1
      ],
      "min": [
        0,
        0
      ],
      "type": "VEC2"
    },
    {
      "bufferView": 7,
      "componentType": 5123,
      "count": 68148,
      "max": [
        23099
      ],
      "min": [
        0
      ],
      "type": "SCALAR"
    }
  ],
  "meshes": [
    {
      "primitives": [
        {
          "mode": 4,
          "attributes": {
            "POSITION": 0,
            "NORMAL": 1,
            "TEXCOORD_0": 2
          },
          "extras": {
            "parameters": {
              "width": 0.06722822971642017,
              "height": 0.00800000037997961,
              "depth": 0.06642469763755798,
              "subdivisions": 0
            },
            "type": "NonParametricGeometry"
          },
          "indices": 3
        }
      ]
    },
    {
      "primitives": [
        {
          "mode": 4,
          "attributes": {
            "POSITION": 4,
            "NORMAL": 5,
            "TEXCOORD_0": 6
          },
          "extras": {
            "parameters": {
              "width": 0.11379775870591402,
              "height": 0.006000000052154064,
              "depth": 0.11218172498047352,
              "subdivisions": 0
            },
            "type": "NonParametricGeometry"
          },
          "indices": 7
        }
      ]
    }
  ],
  "cameras": [
    {
      "type": "orthographic",
      "orthographic": {
        "xmag": 8.55,
        "ymag": 4.74,
        "zfar": 100000,
        "znear": 0
      }
    }
  ]
}