<svg width="20" height="19" viewBox="0 0 20 19" fill="none" xmlns="http://www.w3.org/2000/svg">
<path d="M5.27441 18.9429H1.22461V6.77686H5.27441V18.9429ZM15.2148 6.4917C17.8793 6.49178 19.877 8.2305 19.877 11.9673V18.9429H15.8271V12.4341C15.8271 10.7992 15.2412 9.68408 13.7754 9.68408C12.6572 9.68429 11.9909 10.4354 11.6982 11.1616C11.5912 11.4219 11.5645 11.7853 11.5645 12.1489V18.9429H7.51562C7.51597 18.8709 7.56882 7.9147 7.51562 6.77686H11.5645V8.50049C12.1019 7.67211 13.065 6.4917 15.2148 6.4917ZM3.27637 0.912598C4.66143 0.912692 5.51474 1.82135 5.54102 3.01416C5.5409 4.18221 4.6608 5.1167 3.24902 5.1167H3.22363C1.86433 5.1167 0.985468 4.18221 0.985352 3.01416C0.985352 1.82129 1.89118 0.912598 3.27637 0.912598Z" fill="#0649E7"/>
</svg>
