<svg width="1636" height="1386" viewBox="0 0 1636 1386" fill="none" xmlns="http://www.w3.org/2000/svg">
<path d="M820.716 51.1629C821.675 51.7043 825.988 57.2538 829.982 63.6153C842.284 82.2938 847.237 86.4897 882.705 108.823C916.895 130.073 943.736 157.685 954.759 182.454C965.304 205.87 964.984 226.985 953.961 257.168C947.091 275.847 947.57 275.305 932.552 271.921C922.327 269.485 920.25 268.538 921.049 266.778C921.688 265.56 923.605 257.845 925.363 249.724C931.274 222.112 927.599 199.644 914.019 180.153C902.356 163.505 889.895 152.135 855.545 127.231C834.616 112.071 823.911 102.867 820.237 97.0471L817.84 93.2572L811.769 99.8895C808.254 103.544 799.627 110.988 792.438 116.538C740.514 155.925 731.407 164.181 719.904 181.777C706.484 202.351 704.726 219.134 712.395 251.077L716.868 270.026L713.513 270.432C711.596 270.568 705.206 271.786 699.134 273.004C685.714 275.576 686.353 275.982 679.324 258.116C672.613 241.197 670.377 228.067 671.495 212.502C674.211 174.333 700.732 141.036 758.088 103.273C781.893 87.7078 792.438 78.5039 800.426 66.4576C810.172 51.569 814.964 48.0498 820.716 51.1629ZM824.87 150.376C836.373 155.248 850.912 164.723 859.22 172.709C873.439 186.244 884.942 209.389 885.261 225.36C885.581 236.595 879.989 257.303 875.516 261.905C873.918 263.53 853.468 262.041 851.231 260.146C850.592 259.604 851.231 255.544 852.509 251.077C857.143 235.106 854.746 214.803 846.598 201.403C842.764 194.906 830.302 184.484 822.154 180.83C815.124 177.581 812.089 178.664 798.828 189.086C788.763 196.937 782.372 206.682 779.976 217.645C778.378 225.225 779.816 241.873 782.852 252.972C783.81 256.221 783.97 259.469 783.331 260.01C782.692 260.552 776.461 261.499 769.751 262.041L757.289 262.988L755.052 258.386C748.981 245.934 748.023 219.676 753.295 205.328C761.763 181.642 783.81 159.85 808.893 150.24C817.201 146.992 816.722 146.992 824.87 150.376ZM607.589 169.731C614.459 172.167 619.252 176.905 621.169 182.995C626.92 200.726 599.121 216.969 581.707 206.005C574.677 201.674 570.363 193.688 571.002 186.65C571.801 178.664 575.316 174.197 583.624 170.678C591.452 167.43 600.239 167.024 607.589 169.731ZM1045.99 169.325C1063.08 174.739 1066.6 191.658 1053.02 203.163C1045.03 210.066 1036.4 211.148 1026.17 206.817C1016.59 202.757 1012.59 198.155 1011.64 189.628C1011.16 184.214 1011.64 181.913 1014.51 177.852C1020.58 169.731 1034.96 165.67 1045.99 169.325ZM830.302 214.397C835.255 219.405 836.373 223.872 834.136 230.368C831.42 238.083 825.829 242.279 818.799 242.279C806.337 242.279 798.828 235.376 798.828 224.007C798.828 218.864 799.627 216.969 803.621 213.585C808.254 209.795 809.213 209.524 817.521 210.066C824.87 210.607 827.266 211.419 830.302 214.397ZM319.531 223.465C342.378 229.286 362.828 229.421 397.816 224.007C459.805 214.397 502.942 222.112 541.765 249.453C559.819 262.176 575.476 282.073 583.784 302.782L587.618 312.256L581.547 314.016C578.192 314.963 572.121 317.399 567.807 319.43L560.298 323.22L555.345 312.933C549.274 300.21 540.647 289.111 528.345 277.877C500.226 252.431 460.445 244.445 398.615 251.889C383.437 253.649 350.206 254.19 340.94 252.837L334.23 251.754L336.626 257.574C339.502 264.477 338.543 290.465 334.709 308.602C322.087 367.75 345.573 410.115 404.686 435.291C417.468 440.84 421.781 443.953 416.349 443.953C415.231 443.953 411.876 447.608 409.16 452.074C406.284 456.406 403.408 460.466 402.609 460.872C400.213 462.09 374.491 452.751 362.029 446.119C339.182 433.937 323.046 418.778 311.383 398.475C300.679 379.797 298.282 369.645 298.282 343.116C298.123 330.393 299.081 315.369 300.2 309.549C301.318 303.729 302.436 297.638 302.756 296.014C307.549 271.515 306.75 254.596 300.2 234.294C296.685 223.465 296.845 219.27 300.679 219.27C301.797 219.27 310.265 221.164 319.531 223.465ZM1206.39 220.623C1215.5 221.435 1229.24 222.924 1236.91 224.142C1274.61 229.556 1294.74 229.15 1319.03 222.383C1330.37 219.27 1332.61 218.999 1334.84 220.623C1337.88 222.789 1337.56 225.766 1332.29 237.542C1326.37 250.807 1327.01 282.343 1333.88 313.339C1338.36 333.912 1337.08 359.9 1330.69 380.338C1321.58 409.032 1292.66 438.268 1259.59 452.48C1250.01 456.541 1234.99 461.549 1232.27 461.549C1231.31 461.549 1227.64 457.759 1224.44 453.022C1221.09 448.42 1217.25 443.953 1215.82 443.006C1213.74 441.652 1213.74 441.381 1216.62 440.434C1249.37 430.283 1277.65 408.762 1290.43 384.669C1298.26 369.781 1300.65 360.441 1300.65 343.793C1300.81 335.266 1300.33 325.115 1299.85 321.46C1299.21 317.67 1298.42 312.256 1298.1 309.278C1294.58 284.374 1294.26 277.471 1296.5 266.101C1297.62 259.604 1299.69 253.243 1300.81 252.025C1302.57 250.13 1302.41 249.994 1299.69 250.942C1291.39 253.649 1272.69 254.732 1254.64 253.243C1189.61 248.37 1190.73 248.506 1174.76 250.13C1156.86 252.025 1147.28 254.326 1135.77 259.063C1111.01 269.62 1092.8 286.945 1080.34 311.985C1077.46 317.941 1074.9 322.949 1074.58 323.084C1074.26 323.49 1049.66 312.933 1048.38 311.985C1046.94 310.903 1055.41 290.6 1061 281.396C1080.49 249.588 1123.47 225.09 1167.89 220.623C1183.22 219.134 1188.18 219.134 1206.39 220.623ZM628.678 236.053C635.548 239.843 637.944 244.174 636.666 250.671C634.27 262.041 621.009 268.131 609.186 262.988C594.488 256.627 594.648 239.572 609.506 234.023C613.979 232.399 624.045 233.481 628.678 236.053ZM1027.45 237.001C1032.73 240.114 1035.92 246.611 1034.64 251.077C1033.2 256.085 1024.58 263.665 1019.3 264.612C1008.28 266.643 997.417 259.604 995.819 249.318C993.902 236.865 1014.03 229.015 1027.45 237.001ZM870.723 274.899C904.912 277.606 949.647 286.81 983.038 298.044C1011.32 307.383 1028.57 314.828 1058.13 329.852C1117.24 360.306 1169.01 403.077 1204.47 450.856C1237.54 495.657 1259.75 544.519 1268.38 591.486C1274.13 622.347 1275.09 631.686 1274.93 657.538C1274.93 704.505 1267.74 742.133 1251.76 780.302C1217.57 861.783 1153.99 931.489 1071.07 978.321C1013.23 1011.08 959.393 1029.21 890.693 1039.09C867.048 1042.48 861.776 1042.75 818 1042.75C767.514 1042.88 759.686 1042.34 718.945 1035.17C603.275 1015.14 501.025 954.635 429.61 864.22C358.514 774.076 339.182 657.673 377.366 548.851C400.213 483.611 434.722 434.208 491.279 386.293C517.002 364.502 532.339 353.674 558.541 338.785C649.767 286.945 754.893 265.424 870.723 274.899ZM462.522 288.84C490.8 295.472 511.41 310.497 526.268 335.266C531.061 343.387 531.221 343.793 528.345 343.793C527.227 343.793 521.475 347.177 515.564 351.237C509.812 355.298 504.54 358.682 504.22 358.682C503.741 358.682 500.386 353.538 496.711 347.177C484.889 326.874 470.35 317.264 446.225 313.88C437.598 312.662 431.846 312.662 422.58 313.88C415.71 314.692 409.799 315.64 409.16 316.046C406.923 317.129 407.243 342.981 409.639 350.155C415.391 368.156 428.332 381.421 448.302 389.407C457.888 393.196 460.125 394.685 458.368 395.768C457.089 396.58 453.415 400.776 450.06 404.972C446.864 409.303 443.35 412.822 442.391 412.822C441.592 412.822 435.202 410.521 428.491 407.814C405.805 398.34 387.591 379.661 380.881 358.682C377.846 349.342 376.887 320.783 378.964 303.188C379.603 298.315 380.082 293.442 380.082 292.089C380.242 289.923 387.432 288.434 407.402 286.404C419.385 285.186 453.095 286.675 462.522 288.84ZM1233.71 287.757C1244.41 288.976 1253.52 290.058 1253.84 290.329C1254.16 290.6 1254.64 293.036 1254.96 296.014C1255.28 298.856 1255.92 304.947 1256.56 309.684C1259.43 334.86 1255.92 358.276 1246.65 374.653C1240.1 386.023 1221.25 401.723 1206.39 407.814C1200 410.657 1193.77 412.822 1192.81 412.822C1191.85 412.687 1187.38 408.491 1182.74 403.348L1174.44 394.008L1206.39 407.814C1226.52 399.829 1221.41 363.96 1225.24 345.688C1226.2 341.221 1226.84 332.83 1226.68 327.145C1226.2 316.993 1226.04 316.723 1221.41 315.234C1218.85 314.422 1210.38 313.474 1202.88 313.068C1173.8 311.444 1154.63 319.565 1139.13 339.868C1135.93 344.064 1132.26 349.478 1131.14 351.779C1130.02 354.08 1128.42 355.975 1127.63 355.975C1126.83 355.975 1122.03 352.862 1117.08 349.207C1112.13 345.417 1107.18 342.44 1106.06 342.44C1103.18 342.44 1103.34 341.898 1109.73 330.393C1119.96 312.527 1141.53 297.097 1165.97 290.329C1184.66 285.186 1203.83 284.509 1233.71 287.757ZM463.48 337.973C466.036 339.326 469.551 342.846 471.309 345.959C474.344 351.102 474.344 351.914 472.267 356.245C465.078 370.593 444.947 372.352 438.397 359.223C435.841 353.944 435.521 346.094 437.758 342.44C441.752 336.078 455.172 333.777 463.48 337.973ZM1191.69 339.191C1204.63 348.395 1195.85 368.156 1178.75 368.156C1166.45 368.156 1156.7 355.027 1161.66 345.011C1166.13 335.807 1182.43 332.559 1191.69 339.191ZM279.27 441.246C282.625 443.006 285.821 446.39 287.898 450.315C290.773 455.729 290.933 457.218 289.176 462.09C284.383 475.625 277.832 480.498 264.093 480.498C257.542 480.498 254.826 479.821 250.672 476.844C237.412 467.234 238.37 447.472 252.589 441.111C260.098 437.727 272.56 437.862 279.27 441.246ZM1384.53 444.089C1391.4 449.503 1393.48 454.24 1392.36 461.684C1388.84 483.611 1358.81 489.567 1347.62 470.482C1341.23 459.789 1344.91 447.743 1356.09 442.6C1364.56 438.674 1378.62 439.487 1384.53 444.089ZM340.301 475.761C345.413 477.926 349.887 484.017 349.887 488.619C349.887 490.108 349.248 491.326 348.289 491.326C347.49 491.326 346.691 492.138 346.691 493.221C346.691 494.304 344.774 497.011 342.537 499.312C328.957 512.982 304.194 497.823 313.939 481.852C318.573 474.407 330.715 471.565 340.301 475.761ZM1311.04 475.896C1316.95 478.197 1321.26 483.747 1321.26 488.619C1321.26 493.492 1316.31 500.801 1311.52 502.831C1303.37 506.486 1296.02 505.403 1289.95 499.989C1285.47 496.063 1284.52 494.169 1284.52 489.431C1284.52 476.979 1297.46 470.482 1311.04 475.896ZM320.011 537.887C337.105 542.218 359.473 550.61 359.473 552.776C359.473 553.723 358.834 554.941 358.035 555.618C357.236 556.43 355.479 559.949 354.041 563.739C349.887 574.567 350.366 574.432 337.105 569.83C291.093 553.723 253.069 558.867 219.198 585.531C211.849 591.216 195.553 606.375 183.091 619.098C161.683 640.89 148.422 652.124 139.635 656.184C135.961 657.809 134.523 659.297 137.079 659.027C145.387 657.809 156.57 666.606 181.014 693.947C223.193 741.05 245.24 753.231 288.377 753.096C309.466 753.096 320.809 751.066 338.224 744.434C343.656 742.268 348.449 740.914 348.928 741.456C350.686 744.163 354.999 763.383 354.2 765.142C353.721 766.225 347.97 768.932 341.419 771.369C307.07 783.415 273.519 784.904 243.004 775.835C211.689 766.361 188.843 750.389 158.967 716.822C130.688 685.014 116.948 673.509 94.5812 663.223C90.9066 661.463 87.8711 659.568 87.8711 659.027C87.8711 658.485 87.3918 657.132 86.9125 655.914C86.2734 654.425 88.6699 652.801 95.5398 649.823C114.232 641.837 130.209 628.979 158.168 599.607C176.701 579.846 203.062 557.784 216.962 550.204C240.767 537.21 258.661 533.15 286.779 533.827C301.478 534.233 309.146 535.18 320.011 537.887ZM1382.77 537.346C1405.78 543.572 1428.46 555.618 1445.72 570.913C1450.51 575.244 1463.77 588.373 1475.12 600.284C1499.24 625.189 1515.22 638.859 1528.16 645.627C1543.66 653.748 1547.01 655.778 1547.65 657.132C1547.97 657.944 1545.25 660.11 1541.74 661.869C1511.54 677.299 1501.32 685.42 1475.91 713.98C1454.03 738.614 1443.16 748.63 1427.51 758.375C1392.36 780.572 1355.29 786.934 1314.23 778.136C1304.65 776.106 1282.28 768.662 1275.41 765.413C1275.09 765.278 1275.89 762.165 1277.17 758.51C1278.44 754.856 1279.88 749.848 1280.36 747.411C1280.68 744.84 1281.48 742.539 1281.96 742.133C1282.28 741.727 1290.27 743.757 1299.69 746.464C1339 757.969 1372.55 755.532 1402.42 739.02C1415.52 731.846 1425.91 722.507 1445.4 700.715C1466.33 677.299 1484.54 661.192 1492.21 659.568L1497.8 658.35L1493.81 656.455C1484.7 652.395 1474.48 643.732 1452.59 621.264C1417.28 585.26 1402.9 574.432 1379.1 566.311C1355.13 558.19 1318.39 559.814 1290.11 570.507L1281.48 573.62L1280.52 567.394C1279.88 563.875 1278.76 558.731 1277.81 555.754C1277.01 552.911 1276.53 550.475 1276.85 550.204C1278.76 548.715 1298.1 541.406 1304.97 539.376C1329.57 532.608 1361.84 531.796 1382.77 537.346ZM319.531 598.931C325.283 600.149 332.952 602.044 336.786 603.262L343.656 605.428L342.537 616.391C342.058 622.482 341.259 627.761 340.94 628.167C340.62 628.573 336.307 627.761 331.194 626.272C324.164 624.106 317.774 623.429 305.152 623.429C289.495 623.294 287.578 623.565 277.992 627.49C265.371 632.633 255.785 639.536 246.518 650.229C241.086 656.32 239.968 658.621 241.725 659.162C243.004 659.568 248.116 663.899 253.069 668.907C263.134 678.923 272.72 685.285 283.105 688.398C292.052 691.105 312.981 691.105 324.324 688.263C340.461 684.202 339.821 684.202 341.1 688.939C342.857 695.842 342.218 708.159 339.981 709.378C334.389 712.355 314.419 715.333 300.359 715.198C265.371 715.062 239.329 701.392 211.37 668.501C200.027 654.966 199.068 658.35 219.039 637.37C235.335 620.181 247.157 611.383 262.814 604.886C282.146 596.765 299.401 595.006 319.531 598.931ZM1357.21 600.284C1369.19 603.127 1384.53 611.383 1396.35 621.264C1410.09 632.633 1434.06 658.215 1431.66 658.891C1430.7 659.162 1426.07 664.035 1421.59 669.72C1404.82 690.699 1381.81 706.265 1358.81 712.085C1344.27 715.874 1314.23 715.198 1300.49 711.002L1291.71 708.295L1292.18 697.061C1292.34 690.834 1292.98 685.42 1293.3 685.014C1293.78 684.744 1297.94 685.42 1302.57 686.638C1318.23 690.834 1327.33 691.782 1338.36 690.293C1355.93 687.857 1366.95 681.631 1382.61 665.524C1386.29 661.734 1389.8 659.297 1391.08 659.704C1394.11 660.786 1393.64 659.704 1388.52 653.207C1381.01 644.003 1366.95 632.904 1357.85 628.979C1341.23 621.94 1319.03 620.858 1300.01 626.407C1294.9 627.761 1290.59 628.573 1290.27 628.167C1289.95 627.761 1289.47 622.482 1289.15 616.526L1288.51 605.698L1298.89 602.585C1315.99 597.306 1340.27 596.359 1357.21 600.284ZM311.064 643.055C315.058 644.273 318.892 648.74 320.33 653.883C321.928 659.162 315.218 668.772 308.028 671.75C302.916 673.915 301.638 673.915 296.845 672.291C289.016 669.449 285.661 665.388 284.702 658.079C283.105 643.732 293.649 637.641 311.064 643.055ZM1344.27 644.409C1350.98 648.875 1352.1 651.718 1350.02 659.297C1345.39 675.404 1322.54 678.923 1315.83 664.441C1309.44 651.041 1316.31 641.702 1332.61 641.566C1337.72 641.566 1341.23 642.379 1344.27 644.409ZM340.141 812.786C344.135 814.41 349.887 821.855 349.887 825.238C349.887 828.081 343.177 837.826 339.981 839.721C337.904 840.939 333.111 841.887 328.638 841.887C322.247 841.887 320.17 841.21 316.176 837.962C312.182 834.578 311.543 832.954 311.543 826.727C311.543 818.877 314.419 814.004 320.17 812.109C325.443 810.214 335.188 810.621 340.141 812.786ZM1310.72 812.651C1317.75 815.087 1321.26 819.689 1321.26 826.051C1321.26 835.796 1313.91 843.24 1304.17 843.24C1292.98 843.24 1286.43 837.962 1285.31 827.675C1284.68 822.396 1285.15 821.043 1289.47 816.982C1293.78 812.786 1296.66 811.568 1303.37 810.891C1304.49 810.891 1307.84 811.568 1310.72 812.651ZM273.838 832.954C284.223 836.608 290.773 848.113 287.418 856.911C283.264 868.145 276.714 873.018 265.85 873.018C252.589 873.018 242.844 865.573 241.566 854.204C239.808 837.556 256.104 826.727 273.838 832.954ZM1380.85 834.713C1391.08 839.044 1395.07 853.933 1388.36 863.272C1380.85 873.694 1363.6 876.401 1353.06 868.957C1344.27 862.866 1342.03 850.549 1347.94 841.21C1353.69 832.141 1368.23 829.299 1380.85 834.713ZM409.959 864.22L416.829 874.913L404.047 880.056C366.822 894.809 345.094 915.247 334.709 945.431C329.437 960.725 328.957 978.05 333.271 1004.31C338.064 1033.82 336.786 1060.48 330.236 1067.65C329.277 1068.74 331.993 1068.19 337.265 1066.44C350.526 1061.97 369.538 1061.56 400.692 1065.22C444.628 1070.36 474.504 1068.06 498.469 1057.77C510.771 1052.49 525.15 1042.75 534.416 1033.14C542.245 1025.02 560.777 997.541 558.381 997.541C557.902 997.541 557.902 996.864 558.381 996.188C559.02 995.24 564.132 996.864 571.641 1000.38C578.511 1003.5 584.263 1006.2 584.423 1006.47C584.742 1006.61 583.145 1011.48 580.748 1017.3C573.239 1035.85 557.422 1055.2 540.008 1067.11C518.759 1081.59 501.025 1088.77 473.705 1093.91C451.817 1097.97 433.284 1097.97 403.408 1094.05C385.514 1091.61 370.656 1090.53 353.881 1090.39C330.395 1090.26 329.596 1090.39 315.058 1094.86C306.75 1097.3 299.561 1098.78 298.762 1098.24C298.123 1097.57 299.081 1089.99 301.158 1081.46C306.111 1060.07 306.111 1043.97 301.158 1011.48C298.123 991.18 297.324 980.893 297.963 970.335C299.401 944.619 305.951 923.098 317.454 905.637C324.804 894.539 347.011 875.454 361.07 868.28C373.372 861.919 397.657 852.715 400.852 853.121C402.13 853.256 406.284 858.264 409.959 864.22ZM1244.09 857.452C1258.79 862.19 1277.01 871.393 1288.19 879.785C1310.24 896.433 1327.97 923.504 1331.81 946.107C1334.2 960.049 1333.24 998.624 1330.37 1011.75C1325.74 1031.65 1325.1 1054.52 1328.45 1070.22C1330.05 1077.53 1331.81 1083.76 1332.29 1084.17C1332.76 1084.57 1333.4 1086.06 1333.56 1087.55C1333.72 1089.04 1334.04 1092.02 1334.36 1094.32C1334.84 1097.97 1334.36 1098.38 1330.85 1098.11C1328.61 1097.97 1321.42 1096.21 1314.87 1094.18C1303.85 1090.66 1301.13 1090.39 1280.52 1090.39C1266.14 1090.39 1249.69 1091.48 1234.19 1093.51C1200.64 1097.7 1175.08 1097.57 1154.47 1092.96C1109.73 1083.08 1079.86 1063.59 1060.84 1031.38C1055.25 1022.04 1049.34 1007.29 1050.46 1005.66C1051.42 1004.31 1070.27 994.834 1072.03 994.834C1072.67 994.834 1074.9 998.218 1076.82 1002.28C1082.09 1013.24 1098.23 1033.27 1109.09 1042.34C1137.05 1065.76 1171.08 1072.12 1229.24 1065.22C1264.55 1061.02 1288.51 1062.37 1297.94 1069.14C1300.81 1071.17 1300.81 1071.17 1299.85 1067.25C1294.9 1046.81 1294.74 1032.6 1299.05 1004.71C1304.33 971.283 1301.93 951.386 1290.11 930.271C1277.65 907.803 1257.52 891.29 1229.24 880.327L1217.25 875.725L1221.41 869.363C1223.64 865.844 1225.4 862.46 1225.4 861.919C1225.4 859.076 1228.92 854.068 1230.99 854.068C1232.27 854.068 1238.18 855.557 1244.09 857.452ZM1207.99 909.563C1225.72 917.278 1243.46 934.332 1250.81 950.845C1255.44 961.402 1256.56 980.081 1254.16 1006.34L1252.08 1028.4L1238.34 1029.62C1214.7 1031.38 1187.38 1030.84 1175.88 1028.27C1148.71 1022.18 1124.11 1006.07 1113.89 988.066C1105.74 973.448 1105.74 974.125 1116.92 967.087C1122.51 963.703 1127.47 960.996 1128.26 960.996C1128.9 960.996 1130.82 963.703 1132.58 967.087C1146.8 994.293 1174.44 1007.96 1209.11 1004.85C1215.82 1004.31 1222.37 1003.9 1223.49 1004.17C1224.44 1004.31 1225.4 1003.9 1225.4 1003.36C1225.56 1002.82 1225.88 998.895 1226.36 994.563C1227.8 982.111 1224.44 964.245 1219.01 954.635C1212.78 944.077 1199.36 933.384 1184.18 927.158C1177.95 924.587 1172.68 921.88 1172.68 921.203C1172.68 919.985 1186.58 905.637 1189.3 903.878C1191.05 902.795 1194.73 904.013 1207.99 909.563ZM451.977 913.217L459.646 922.286L452.137 924.451C428.491 931.219 411.397 948.002 407.243 968.711C406.124 975.073 406.604 1001.2 408.041 1002.55C408.361 1002.82 416.03 1003.36 425.296 1003.77C451.018 1005.12 464.598 1001.6 479.616 989.691C487.924 983.194 496.711 971.689 499.907 963.297C501.025 960.59 502.303 958.289 502.623 958.289C503.102 958.289 508.854 961.673 515.404 965.733C526.268 972.501 529.623 975.885 525.789 975.885C524.99 975.885 523.872 977.644 523.232 979.945C522.753 982.111 519.558 987.39 516.203 991.721C501.664 1010.67 483.131 1021.5 455.172 1027.45C443.19 1030.16 439.036 1030.3 415.231 1029.62C400.532 1029.08 386.793 1028.13 384.716 1027.45C381.041 1026.24 380.721 1025.42 378.964 1008.1C375.289 973.584 377.207 959.507 387.911 940.829C394.302 929.73 411.876 915.247 426.414 909.156C432.805 906.314 439.515 904.148 441.113 904.148C442.87 904.148 447.184 907.668 451.977 913.217ZM467.634 953.552C473.066 958.154 473.226 958.695 472.267 964.786C470.51 976.426 461.403 982.923 450.539 980.081C443.35 978.321 439.355 974.667 437.918 968.847C435.042 957.477 442.391 948.815 454.853 948.815C460.924 948.815 462.841 949.491 467.634 953.552ZM1186.42 951.386C1194.09 954.364 1198.88 961.402 1197.28 967.358C1194.09 979.133 1183.54 984.818 1172.36 980.893C1157.34 975.614 1156.06 956.8 1170.28 950.845C1176.51 948.273 1178.43 948.408 1186.42 951.386ZM700.572 1046.27C713.034 1048.57 714.472 1048.97 713.034 1050.73C709.679 1054.66 703.768 1074.42 702.33 1086.2C701.371 1094.86 703.288 1109.07 706.484 1116.65C706.963 1117.73 708.72 1121.66 710.158 1125.45C717.987 1144.53 739.555 1165.65 779.337 1192.99C800.905 1207.88 810.012 1216.27 813.527 1224.39C814.645 1226.96 815.923 1228.99 816.402 1228.99C816.882 1228.99 818.799 1226.42 820.396 1223.17C825.03 1214.24 828.704 1210.72 847.557 1197.59C901.398 1159.69 919.132 1140.88 926.002 1113.94C930.954 1094.59 928.718 1066.98 921.049 1054.12C919.771 1051.82 919.451 1050.06 920.41 1049.52C922.007 1048.7 942.617 1043.56 944.375 1043.56C945.653 1043.56 956.197 1063.32 957.795 1068.6C959.872 1075.91 960.351 1079.16 960.351 1094.45C960.351 1110.69 958.594 1121.79 953.961 1133.16C944.055 1157.66 920.57 1182.7 884.463 1206.93C850.273 1230.08 835.414 1243.75 825.03 1261.75C818.32 1273.39 814.645 1273.39 807.615 1261.48C798.349 1246.05 784.289 1233.05 751.538 1209.77C701.85 1174.31 681.72 1151.03 674.051 1120.03C668.779 1099.33 670.696 1081.05 680.122 1058.45C685.714 1044.64 686.673 1043.29 689.868 1044.1C691.306 1044.51 696.259 1045.46 700.572 1046.27ZM628.518 1055.88C630.755 1057.37 633.79 1060.34 635.068 1062.51C638.583 1068.19 634.429 1079.29 627.4 1082.81C610.944 1091.34 592.571 1075.91 601.518 1061.16C606.311 1053.31 620.37 1050.46 628.518 1055.88ZM1023.3 1055.2C1031.45 1058.45 1034.32 1062.92 1033.2 1071.04C1032.09 1078.75 1029.21 1082.14 1021.54 1084.17C1010.52 1087.28 999.973 1081.19 997.896 1070.63C995.5 1057.77 1009.24 1049.52 1023.3 1055.2ZM778.538 1056.55C781.733 1056.96 784.449 1057.5 784.449 1057.64C784.449 1057.91 783.331 1059.94 781.893 1062.24C777.739 1069.41 774.384 1086.33 775.662 1094.45C776.141 1098.51 777.26 1101.76 778.059 1101.76C778.698 1101.76 779.816 1103.39 780.455 1105.42C782.213 1111.64 792.597 1123.28 801.864 1129.64C806.816 1133.03 811.929 1136.55 813.207 1137.49C815.124 1138.85 816.722 1138.44 821.994 1135.06C833.018 1128.02 838.77 1123.01 847.237 1113.4L855.385 1104.06L856.024 1090.93C856.663 1077.94 853.947 1064.54 849.634 1060.07C848.675 1059.13 848.196 1058.18 848.515 1057.91C849.793 1056.83 873.918 1054.93 875.516 1055.74C879.19 1057.64 883.504 1074.01 883.504 1085.65C883.504 1101.36 881.107 1111.37 874.557 1122.88C865.93 1138.44 851.391 1151.57 822.633 1169.84L816.882 1173.5L800.106 1162.13C781.414 1149.41 770.23 1139.39 762.242 1128.29C747.863 1108.12 744.508 1090.39 750.898 1068.6C752.816 1061.83 754.733 1055.88 755.212 1055.34C756.011 1054.25 762.561 1054.66 778.538 1056.55ZM825.669 1075.5C833.497 1080.11 835.894 1090.93 830.781 1099.05C824.87 1108.53 806.816 1107.99 801.225 1098.38C796.911 1090.39 798.828 1080.24 805.698 1075.77C810.172 1072.8 820.876 1072.66 825.669 1075.5ZM608.388 1110.83C615.737 1115.43 618.932 1120.3 618.772 1126.26C618.133 1138.71 611.104 1146.7 599.6 1148.59C594.967 1149.27 592.091 1148.86 586.5 1146.29C576.115 1141.56 572.76 1136.95 572.76 1127.61C572.92 1118.68 577.233 1112.18 585.381 1109.07C591.772 1106.63 603.115 1107.45 608.388 1110.83ZM1048.06 1109.61C1051.1 1110.83 1055.25 1114.08 1057.33 1116.65C1060.52 1120.58 1061 1122.61 1060.52 1129.37C1059.89 1136.68 1059.25 1137.77 1053.18 1142.5C1046.78 1147.65 1043.59 1148.46 1033.68 1147.78C1027.29 1147.38 1021.38 1144.13 1017.71 1138.85C1014.67 1134.79 1014.19 1132.76 1014.99 1126.4C1015.47 1122.2 1017.23 1117.33 1018.99 1115.43C1022.66 1110.97 1031.45 1107.18 1037.68 1107.18C1040.39 1107.18 1045.03 1108.26 1048.06 1109.61Z" fill="url(#paint0_radial_1_13)" fill-opacity="0.78"/>
<path d="M797.537 299.635C692.89 304.101 602.942 335.368 527.054 393.569C487.432 424.158 448.609 468.96 424.324 512.813C409.306 539.884 394.768 580.489 389.336 610.131C384.543 636.389 384.543 680.92 389.336 711.78C391.253 725.18 399.721 753.062 407.709 772.553C428.798 824.528 464.106 872.172 510.438 911.83C582.333 973.144 666.689 1008.47 768.779 1019.98C788.91 1022.14 850.26 1022.28 868.633 1019.98C931.9 1012.26 994.208 993.176 1044.37 966.106C1096.46 938.088 1142.15 900.325 1175.22 857.96C1202.38 823.175 1227.79 774.448 1236.89 739.798C1242 719.766 1248.24 680.108 1248.72 663.73C1249.83 624.614 1239.93 576.429 1222.35 536.229C1187.68 456.507 1118.67 389.237 1024.88 343.895C975.516 319.938 909.213 302.883 855.532 300.312C825.815 298.823 819.105 298.823 797.537 299.635ZM828.851 323.321C830.928 324.404 833.804 327.382 835.242 329.683C837.478 333.337 837.638 334.691 835.881 338.751C833.165 345.248 830.129 347.955 823.738 349.715C808.081 354.181 792.584 337.939 801.691 326.84C807.283 320.208 820.224 318.449 828.851 323.321ZM736.826 334.826C743.536 340.511 742.737 349.309 734.909 354.181C728.199 358.377 721.169 357.836 715.577 352.422C711.743 348.767 711.104 347.143 711.903 343.083C713.021 336.45 719.252 332.119 727.4 332.119C731.394 332.119 734.749 333.067 736.826 334.826ZM918 335.638C930.781 346.602 911.29 363.521 897.39 353.369C894.994 351.61 892.917 348.361 892.438 345.519C891.639 341.729 892.278 339.97 895.793 336.45C899.308 332.796 901.225 332.119 906.976 332.119C912.089 332.119 914.645 332.931 918 335.638ZM651.99 359.866C665.57 365.686 659.499 382.876 643.842 382.876C635.535 382.876 629.783 377.733 629.783 370.153C629.783 360.002 640.807 354.858 651.99 359.866ZM995.327 361.355C1007.47 367.987 998.203 385.312 983.664 383.011C973.439 381.387 968.326 370.694 974.238 363.521C979.031 357.701 987.019 356.888 995.327 361.355ZM870.23 377.462C938.61 388.155 992.771 410.894 1047.41 451.77C1087.99 482.089 1121.22 526.213 1132.09 563.841L1133.04 567.631L1123.78 562.487C1118.67 559.78 1110.84 555.991 1106.52 554.366C1099.33 551.524 1097.9 550.171 1093.26 542.185C1055.56 477.081 976.954 424.294 891.319 406.562C817.667 391.268 746.891 397.629 680.429 425.512C624.671 449.063 583.93 480.6 553.096 524.454C548.303 531.221 542.391 538.53 540.154 540.696C536.32 544.215 535.521 544.35 529.29 543.132C525.456 542.455 519.864 540.967 516.829 539.884C512.196 538.26 511.556 537.447 512.515 534.876C514.592 529.056 522.421 516.874 531.847 504.692C587.445 433.633 667.647 389.914 767.181 376.65C790.827 373.401 847.863 373.943 870.23 377.462ZM584.569 401.419C589.043 405.615 590.001 408.728 588.244 412.518C586.007 417.661 580.096 421.451 574.504 421.451C567.315 421.451 562.681 417.797 561.563 411.029C560.764 406.292 561.244 404.938 564.758 401.961C570.19 397.359 579.936 397.088 584.569 401.419ZM1069.62 401.148C1083.52 410.488 1066.42 429.302 1051.72 420.639C1043.42 415.631 1042.62 405.074 1050.45 400.472C1055.24 397.629 1064.67 397.9 1069.62 401.148ZM536.16 443.92C541.912 448.928 541.752 454.612 535.521 459.485C526.095 467.2 513.314 462.598 512.835 451.364C512.675 446.627 513.314 444.867 516.19 442.837C521.781 439.182 530.888 439.588 536.16 443.92ZM1118.83 444.326C1124.74 449.469 1125.06 455.424 1119.46 460.026C1112.28 466.253 1099.65 464.222 1096.3 456.237C1093.9 450.146 1094.38 447.303 1098.7 443.784C1104.29 438.912 1112.75 439.182 1118.83 444.326ZM826.295 446.491C836.52 450.958 839.875 458.808 835.242 467.877C831.727 475.186 827.094 477.622 817.188 477.622C809.2 477.622 808.081 477.216 802.969 472.614C797.856 467.877 796.578 464.493 797.537 457.319C798.655 447.439 814.792 441.483 826.295 446.491ZM742.737 464.087C747.53 468.147 748.329 469.501 747.371 473.155C746.891 475.592 744.495 479.246 742.098 481.277C730.755 491.428 710.624 480.464 717.015 467.606C720.051 461.515 723.565 459.485 731.074 459.35C735.867 459.35 738.264 460.297 742.737 464.087ZM914.965 463.41C925.19 471.531 917.681 486.42 903.461 486.42C896.432 486.42 889.083 480.6 887.645 473.968C886.686 469.366 887.165 468.418 892.438 463.952C897.71 459.485 898.828 459.079 904.74 459.756C908.414 460.162 913.047 461.786 914.965 463.41ZM674.677 486.285C677.872 488.992 679.31 491.563 679.31 494.541C679.31 497.519 677.872 500.09 674.677 502.797C662.535 513.084 645.121 501.985 652.31 488.586C656.144 481.547 667.647 480.329 674.677 486.285ZM979.51 485.743C982.066 487.638 984.463 490.616 984.782 492.24C985.581 496.571 981.427 503.474 976.954 505.234C967.687 508.888 958.74 505.911 955.705 498.06C951.072 485.879 967.528 477.351 979.51 485.743ZM489.669 499.955C492.065 502.256 493.982 505.234 493.982 506.858C493.982 511.731 489.189 517.686 483.597 519.716C468.42 524.995 456.597 508.482 468.42 498.331C472.733 494.812 474.171 494.27 479.284 494.947C483.118 495.488 486.793 497.248 489.669 499.955ZM1168.35 499.82C1173.78 504.557 1174.26 509.565 1169.95 515.791C1161.96 526.755 1142.63 521.205 1142.63 507.805C1142.63 496.436 1158.45 491.428 1168.35 499.82ZM628.345 559.51C646.079 561.134 661.097 563.841 663.813 566.142C664.931 567.089 664.292 572.097 662.056 581.437C658.381 597.002 656.144 602.822 653.908 602.822C653.109 602.822 643.842 600.927 633.458 598.626C618.919 595.378 610.931 594.43 598.629 594.295C580.096 594.16 571.309 595.919 564.439 601.333C560.285 604.582 559.486 606.206 559.486 611.62C559.486 627.321 568.912 632.464 612.369 640.721C651.351 647.894 671.642 664.272 671.482 688.229C671.482 705.554 662.215 724.503 649.274 734.249C640.168 741.016 625.789 746.972 611.41 749.949C594.315 753.469 560.125 753.198 538.876 749.137C519.545 745.618 500.373 739.933 499.255 737.362C498.615 736.008 502.61 722.202 507.722 707.314C508.521 704.877 512.196 705.283 524.497 709.073C552.616 717.6 586.327 718.954 602.942 712.051C614.925 707.043 620.676 701.358 619.398 695.673C616.842 684.845 609.812 681.326 573.066 671.852C558.208 668.062 541.113 662.783 535.362 660.211C510.119 648.977 497.817 629.757 501.811 608.236C506.923 581.166 536.16 562.758 579.457 559.51C599.108 558.021 610.451 558.021 628.345 559.51ZM1064.51 564.112C1099.33 570.879 1115.47 582.249 1126.17 607.018L1130.49 617.034L1130.65 680.379C1130.65 721.12 1130.01 744.265 1129.05 744.941C1126.65 746.566 1084.64 747.784 1081.92 746.295C1079.84 745.212 1079.36 736.55 1078.72 685.793C1077.93 626.915 1077.93 626.509 1074.09 619.335C1069.62 610.943 1062.27 605.123 1049.97 600.251C1042.46 597.273 1038.46 596.731 1022.01 596.325C1011.46 595.919 998.203 596.461 992.451 597.273L982.066 598.897L981.747 670.633C981.587 710.156 981.108 743.317 980.628 744.4C979.829 746.024 975.676 746.295 956.983 746.024L934.136 745.618V656.963V568.308L950.113 565.33C973.918 560.863 990.374 559.645 1020.41 560.187C1041.98 560.593 1051.08 561.405 1064.51 564.112ZM452.283 565.601C454.84 566.683 457.715 569.255 458.674 571.421C460.272 574.805 460.112 576.293 457.715 580.625C452.603 589.964 438.863 591.859 431.674 584.279C421.449 573.18 437.106 558.833 452.283 565.601ZM752.163 622.042C752.004 654.256 752.483 683.086 752.962 686.199C754.24 692.56 760.312 701.358 766.542 705.554C777.886 713.134 808.241 715.841 827.892 711.104C834.443 709.615 840.674 708.261 841.792 708.126C842.91 707.99 844.188 707.043 844.668 705.825C845.147 704.742 845.467 672.393 845.147 634.088L844.668 564.247H869.272H894.035L893.556 651.549C893.237 716.788 892.757 739.121 891.319 739.798C888.923 741.016 873.106 744.129 853.455 747.107C842.751 748.867 829.65 749.543 808.72 749.543C783.478 749.543 777.087 749.137 764.785 746.566C731.394 739.527 712.861 726.398 703.754 703.118C701.678 697.974 701.198 685.793 700.559 632.194C700.08 596.596 700.24 566.548 700.719 565.465C701.358 563.976 706.47 563.57 726.921 563.57H752.323L752.163 622.042ZM1200.31 567.496C1213.25 578.459 1194.87 596.19 1180.5 586.58C1171.71 580.625 1171.55 569.796 1180.5 565.736C1187.84 562.352 1194.87 563.029 1200.31 567.496ZM443.816 644.104C453.402 649.383 454.68 661.023 446.692 669.009C440.78 674.965 432.792 676.454 424.484 673.34C413.46 669.145 410.425 660.617 415.857 648.571C419.372 641.262 434.23 638.69 443.816 644.104ZM1209.25 643.292C1215.48 645.729 1220.92 651.549 1220.92 655.88C1220.92 660.617 1217.08 668.468 1213.41 671.31C1206.06 677.13 1188.64 674.829 1184.01 667.656C1180.18 661.565 1179.38 656.692 1181.61 652.361C1184.17 647.218 1188.8 643.698 1194.71 642.074C1201.26 640.45 1201.74 640.45 1209.25 643.292ZM453.402 729.241C456.437 731.812 458.834 735.196 458.834 736.685C458.834 741.287 454.68 748.596 451.165 750.22C446.212 752.521 437.265 751.98 433.431 749.273C425.922 744.129 426.561 730.459 434.549 726.804C441.739 723.421 447.331 724.097 453.402 729.241ZM1202.06 730.053C1206.38 733.707 1206.86 734.925 1206.06 739.663C1204.62 749.273 1195.99 754.416 1186.41 751.709C1179.22 749.679 1176.18 745.618 1176.18 738.038C1176.18 732.76 1176.98 731.136 1180.34 728.835C1186.89 724.503 1195.99 725.045 1202.06 730.053ZM529.29 769.305H535.362L543.829 783.111C565.717 819.385 597.67 850.11 639.049 874.473C695.926 908.175 775.969 926.177 845.467 921.034C892.757 917.379 938.929 903.979 982.066 881.24C1023.92 859.178 1067.86 819.249 1087.03 785.818C1091.67 777.832 1095.98 770.929 1096.62 770.523C1098.7 769.305 1126.65 769.034 1126.65 770.252C1126.65 770.794 1125.54 772.553 1124.26 773.907C1122.98 775.396 1120.74 779.862 1119.3 783.923C1113.87 799.759 1099.17 821.009 1079.68 840.77C1032.07 889.226 972.001 921.575 900.586 937.141C867.354 944.45 854.254 945.803 818.306 945.668C774.85 945.532 743.856 941.201 707.11 930.238C654.706 914.537 613.008 892.204 573.705 858.772C550.539 839.011 533.444 820.197 522.9 802.466C515.551 790.149 506.763 769.711 508.201 768.493C508.681 768.087 512.355 768.087 516.19 768.493C520.024 768.899 525.935 769.305 529.29 769.305ZM486.154 798.947C491.426 803.549 491.905 806.797 488.071 813.023C484.556 818.843 481.521 820.603 474.651 820.738C464.266 820.738 457.715 810.316 462.828 801.789C467.461 794.074 478.804 792.721 486.154 798.947ZM1165.16 797.187C1167.87 798.27 1171.07 801.248 1172.35 803.819C1174.26 807.745 1174.26 808.963 1172.19 813.159C1167.39 822.633 1156.85 824.934 1148.86 818.167C1140.39 810.858 1143.59 798.27 1154.61 795.969C1159.89 794.886 1160.2 794.886 1165.16 797.187ZM673.719 810.587C682.506 817.896 675.636 831.566 663.494 831.566C650.712 831.566 644.162 819.385 652.31 810.722C656.943 805.85 668.127 805.714 673.719 810.587ZM978.232 808.557C979.829 809.369 982.386 811.805 983.664 814.106C986.699 819.114 984.622 826.288 979.19 829.536C975.196 831.972 966.409 832.243 961.936 830.078C953.947 826.558 953.308 814.647 960.658 809.504C964.492 806.932 973.439 806.391 978.232 808.557ZM738.903 831.296C744.015 835.221 744.974 839.146 742.258 845.237C739.222 851.463 736.187 853.223 727.719 853.223C711.903 853.223 707.269 834.815 721.648 829.401C727.4 827.235 734.589 827.912 738.903 831.296ZM911.13 829.536C919.917 833.461 921.515 843.071 914.326 849.297C904.42 857.554 888.763 852.817 888.124 841.447C887.645 830.619 899.627 824.528 911.13 829.536ZM829.65 840.906C834.922 845.237 835.881 846.996 835.881 851.734C835.881 862.697 827.573 869.871 814.792 869.871C807.123 869.871 801.052 866.487 798.176 860.667C791.626 847.403 800.572 835.762 817.348 835.627C822.301 835.627 824.537 836.574 829.65 840.906ZM528.172 857.283C530.409 857.96 533.285 860.396 534.722 862.697C536.959 866.487 536.959 867.164 534.083 872.037C530.728 877.586 528.172 878.939 521.462 878.939C510.758 878.939 505.805 866.081 513.953 859.313C518.107 855.659 521.781 855.118 528.172 857.283ZM1116.27 857.554C1118.67 858.501 1121.54 860.802 1122.82 862.968C1124.74 866.216 1124.74 867.435 1122.98 871.089C1119.46 878.263 1114.35 880.428 1105.72 878.533C1101.89 877.721 1099.01 874.608 1097.26 868.788C1095.98 865.134 1101.57 857.689 1106.2 856.877C1108.28 856.606 1110.36 856.2 1111 856.065C1111.64 856.065 1114.03 856.606 1116.27 857.554ZM579.617 900.46C585.847 903.709 587.445 908.581 584.41 914.808C578.658 926.448 559.486 922.929 559.486 910.341C559.486 907.499 560.445 904.115 561.563 902.897C563.161 901.002 568.912 898.701 573.865 898.024C574.344 897.889 576.901 899.107 579.617 900.46ZM1071.22 903.573C1073.45 905.739 1073.93 907.905 1073.29 911.288C1070.58 925.771 1049.17 926.042 1045.81 911.695C1045.01 908.175 1045.65 906.822 1049.81 903.167C1054.44 899.378 1055.56 898.971 1061.63 899.648C1065.94 900.19 1069.3 901.543 1071.22 903.573ZM654.706 939.983C656.624 941.472 658.541 944.179 658.86 945.803C659.819 950.134 655.346 957.714 650.553 959.744C637.931 965.294 624.191 951.353 632.339 941.472C637.452 935.246 647.837 934.569 654.706 939.983ZM997.563 940.795C1002.68 944.72 1003.79 948.645 1001.24 953.924C995.167 966.241 977.753 965.294 973.439 952.435C971.681 947.427 975.036 940.93 980.149 938.629C984.782 936.735 993.729 937.817 997.563 940.795ZM736.347 964.482C740.341 967.324 743.376 973.55 742.258 977.069C740.82 981.807 732.832 987.221 727.24 987.221C712.542 987.221 707.908 967.595 721.329 962.857C725.483 961.369 733.151 962.181 736.347 964.482ZM914.326 963.534C927.586 969.354 921.835 987.221 906.657 987.221C898.828 987.221 893.396 982.213 893.396 975.039C893.396 968.271 895.633 964.482 900.266 962.857C905.538 961.098 909.053 961.233 914.326 963.534ZM829.33 970.708C842.751 979.1 834.123 998.049 817.028 998.049C810.797 998.049 802.969 994.936 800.892 991.417C798.176 987.356 797.856 979.641 800.093 975.174C804.087 967.189 819.904 964.752 829.33 970.708Z" fill="black"/>
<defs>
<radialGradient id="paint0_radial_1_13" cx="0" cy="0" r="1" gradientUnits="userSpaceOnUse" gradientTransform="translate(817.244 660.283) rotate(90) scale(610.161 730.431)">
<stop offset="0.456731" stop-color="#E61D1D"/>
<stop offset="0.576923"/>
<stop offset="0.740385" stop-color="#121212"/>
</radialGradient>
</defs>
</svg>
